<?xml version="1.0" encoding="UTF-8"?>
<!DOCTYPE svg PUBLIC "-//W3C//DTD SVG 1.1//EN" "http://www.w3.org/Graphics/SVG/1.1/DTD/svg11.dtd">
<svg xmlns="http://www.w3.org/2000/svg" version="1.1" width="1020px" height="1032px" style="shape-rendering:geometricPrecision; text-rendering:geometricPrecision; image-rendering:optimizeQuality; fill-rule:evenodd; clip-rule:evenodd" xmlns:xlink="http://www.w3.org/1999/xlink">
<g><path style="opacity:0.999" fill="#fefefe" d="M 63.5,-0.5 C 360.833,-0.5 658.167,-0.5 955.5,-0.5C 993.161,4.49391 1014.49,25.8272 1019.5,63.5C 1019.5,365.167 1019.5,666.833 1019.5,968.5C 1014.04,1005.63 992.704,1026.63 955.5,1031.5C 658.167,1031.5 360.833,1031.5 63.5,1031.5C 26.2963,1026.63 4.96299,1005.63 -0.5,968.5C -0.5,666.833 -0.5,365.167 -0.5,63.5C 4.50609,25.8272 25.8394,4.49391 63.5,-0.5 Z"/></g>
<g><path style="opacity:1" fill="#000000" d="M 616.5,913.5 C 555.836,912.828 495.169,912.495 434.5,912.5C 335.833,912.5 237.167,912.5 138.5,912.5C 138.5,644.167 138.5,375.833 138.5,107.5C 303.5,107.333 468.5,107.5 633.5,108C 681.785,109.721 727.785,120.721 771.5,141C 829.98,172.486 870.146,219.653 892,282.5C 904.228,321.974 912.228,362.307 916,403.5C 924.558,497.821 917.224,590.821 894,682.5C 880.772,728.951 860.106,771.618 832,810.5C 787.727,866.737 729.894,899.903 658.5,910C 644.561,911.993 630.561,913.159 616.5,913.5 Z"/></g>
<g><path style="opacity:1" fill="#fdfdfd" d="M 457.5,115.5 C 490.5,115.5 523.5,115.5 556.5,115.5C 556.5,118.833 556.5,122.167 556.5,125.5C 523.5,125.5 490.5,125.5 457.5,125.5C 457.5,122.167 457.5,118.833 457.5,115.5 Z"/></g>
<g><path style="opacity:1" fill="#fbfbfb" d="M 457.5,140.5 C 490.5,140.5 523.5,140.5 556.5,140.5C 556.5,144.5 556.5,148.5 556.5,152.5C 523.5,152.5 490.5,152.5 457.5,152.5C 457.5,148.5 457.5,144.5 457.5,140.5 Z"/></g>
<g><path style="opacity:1" fill="#fbfbfb" d="M 457.5,167.5 C 490.5,167.5 523.5,167.5 556.5,167.5C 556.5,171.167 556.5,174.833 556.5,178.5C 523.5,178.5 490.5,178.5 457.5,178.5C 457.5,174.833 457.5,171.167 457.5,167.5 Z"/></g>
<g><path style="opacity:1" fill="#fafafa" d="M 457.5,193.5 C 490.5,193.5 523.5,193.5 556.5,193.5C 556.5,196.5 556.5,199.5 556.5,202.5C 523.5,202.5 490.5,202.5 457.5,202.5C 457.5,199.5 457.5,196.5 457.5,193.5 Z"/></g>
<g><path style="opacity:1" fill="#fbfbfb" d="M 457.5,217.5 C 490.5,217.5 523.5,217.5 556.5,217.5C 556.5,222.167 556.5,226.833 556.5,231.5C 523.5,231.5 490.5,231.5 457.5,231.5C 457.5,226.833 457.5,222.167 457.5,217.5 Z"/></g>
<g><path style="opacity:1" fill="#dcdcdc" d="M 457.5,247.5 C 490.329,246.502 523.329,246.168 556.5,246.5C 556.802,249.059 556.468,251.393 555.5,253.5C 555.5,251.5 555.5,249.5 555.5,247.5C 522.833,247.5 490.167,247.5 457.5,247.5 Z"/></g>
<g><path style="opacity:1" fill="#fefefe" d="M 457.5,247.5 C 490.167,247.5 522.833,247.5 555.5,247.5C 555.5,249.5 555.5,251.5 555.5,253.5C 555.5,254.833 555.5,256.167 555.5,257.5C 522.833,257.5 490.167,257.5 457.5,257.5C 457.5,254.167 457.5,250.833 457.5,247.5 Z"/></g>
<g><path style="opacity:1" fill="#fbfbfb" d="M 457.5,272.5 C 490.5,272.5 523.5,272.5 556.5,272.5C 556.5,276.833 556.5,281.167 556.5,285.5C 523.5,285.5 490.5,285.5 457.5,285.5C 457.5,281.167 457.5,276.833 457.5,272.5 Z"/></g>
<g><path style="opacity:1" fill="#fefefe" d="M 382.5,300.5 C 440.504,300.167 498.504,300.5 556.5,301.5C 593.054,306.028 624.221,321.361 650,347.5C 673.157,375.121 681.157,406.788 674,442.5C 671.082,458.335 664.415,472.335 654,484.5C 647.956,490.049 641.789,495.383 635.5,500.5C 688.633,533.806 703.8,579.806 681,638.5C 662.107,677.034 631.607,701.201 589.5,711C 578.571,713.252 567.571,715.085 556.5,716.5C 500.503,717.667 444.503,717.833 388.5,717C 357.371,717.04 337.537,702.207 329,672.5C 326.951,660.249 325.618,647.915 325,635.5C 324.033,542.485 324.366,449.485 326,356.5C 332.093,324.906 350.927,306.24 382.5,300.5 Z"/></g>
<g><path style="opacity:1" fill="#010101" d="M 497.5,357.5 C 531.836,356.361 553.003,372.361 561,405.5C 562.889,437.925 548.389,458.759 517.5,468C 488.423,472.379 467.256,461.546 454,435.5C 443.511,401.658 454.011,376.825 485.5,361C 489.675,360.009 493.675,358.842 497.5,357.5 Z"/></g>
<g><path style="opacity:1" fill="#010101" d="M 498.5,525.5 C 532.836,524.361 554.003,540.361 562,573.5C 563.889,605.925 549.389,626.759 518.5,636C 489.423,640.379 468.256,629.546 455,603.5C 444.511,569.658 455.011,544.825 486.5,529C 490.675,528.009 494.675,526.842 498.5,525.5 Z"/></g>
<g><path style="opacity:1" fill="#fbfbfb" d="M 457.5,732.5 C 490.5,732.5 523.5,732.5 556.5,732.5C 556.5,736.833 556.5,741.167 556.5,745.5C 523.5,745.5 490.5,745.5 457.5,745.5C 457.5,741.167 457.5,736.833 457.5,732.5 Z"/></g>
<g><path style="opacity:1" fill="#fcfcfc" d="M 457.5,760.5 C 490.167,760.5 522.833,760.5 555.5,760.5C 555.646,764.519 555.979,768.519 556.5,772.5C 523.5,772.5 490.5,772.5 457.5,772.5C 457.5,768.5 457.5,764.5 457.5,760.5 Z"/></g>
<g><path style="opacity:1" fill="#fbfbfb" d="M 457.5,787.5 C 490.5,787.5 523.5,787.5 556.5,787.5C 556.5,791.167 556.5,794.833 556.5,798.5C 523.5,798.5 490.5,798.5 457.5,798.5C 457.5,794.833 457.5,791.167 457.5,787.5 Z"/></g>
<g><path style="opacity:1" fill="#fbfbfb" d="M 457.5,813.5 C 490.5,813.5 523.5,813.5 556.5,813.5C 556.5,817.167 556.5,820.833 556.5,824.5C 523.5,824.5 490.5,824.5 457.5,824.5C 457.5,820.833 457.5,817.167 457.5,813.5 Z"/></g>
<g><path style="opacity:1" fill="#fbfbfb" d="M 457.5,839.5 C 490.5,839.5 523.5,839.5 556.5,839.5C 556.5,843.5 556.5,847.5 556.5,851.5C 523.5,851.5 490.5,851.5 457.5,851.5C 457.5,847.5 457.5,843.5 457.5,839.5 Z"/></g>
<g><path style="opacity:1" fill="#fbfbfb" d="M 457.5,866.5 C 490.5,866.5 523.5,866.5 556.5,866.5C 556.5,870.167 556.5,873.833 556.5,877.5C 523.5,877.5 490.5,877.5 457.5,877.5C 457.5,873.833 457.5,870.167 457.5,866.5 Z"/></g>
<g><path style="opacity:1" fill="#fefffe" d="M 457.5,893.5 C 490.167,893.5 522.833,893.5 555.5,893.5C 555.5,897.167 555.5,900.833 555.5,904.5C 522.833,904.5 490.167,904.5 457.5,904.5C 457.5,900.833 457.5,897.167 457.5,893.5 Z"/></g>
<g><path style="opacity:1" fill="#d3d3d3" d="M 457.5,893.5 C 490.329,892.502 523.329,892.168 556.5,892.5C 556.5,896.833 556.5,901.167 556.5,905.5C 523.329,905.832 490.329,905.498 457.5,904.5C 490.167,904.5 522.833,904.5 555.5,904.5C 555.5,900.833 555.5,897.167 555.5,893.5C 522.833,893.5 490.167,893.5 457.5,893.5 Z"/></g>
<g><path style="opacity:1" fill="#7a7a7a" d="M 434.5,912.5 C 495.169,912.495 555.836,912.828 616.5,913.5C 606.506,914.167 596.339,914.5 586,914.5C 535.333,914.001 484.833,913.334 434.5,912.5 Z"/></g>
</svg>
